<svg width="94" height="29" viewBox="0 0 94 29" fill="none" xmlns="http://www.w3.org/2000/svg">
<path d="M90.8319 28.4791H3.35172C1.53399 28.4791 0 26.9846 0 25.1676V3.87379C0 2.05682 1.53399 0.512207 3.35172 0.512207H90.8319C92.6481 0.512207 94 2.05682 94 3.87379V25.1676C94 26.9846 92.6026 28.4791 90.7856 28.4791H90.8319Z" fill="#B1B3B6"/>
<path d="M93.5053 25.1686C93.5053 26.6441 92.3105 27.839 90.8326 27.839H3.35169C1.8746 27.839 0.675171 26.6441 0.675171 25.1686V3.87396C0.675171 2.39914 1.8746 1.19971 3.35169 1.19971H90.8318C92.3105 1.19971 93.5046 2.39914 93.5046 3.87396V25.1686H93.5053Z" fill="black"/>
<path d="M21.0609 14.3729C21.0405 12.1258 22.9007 11.0326 22.9856 10.9817C21.9326 9.44548 20.2993 9.23533 19.7257 9.21864C18.3541 9.07526 17.0242 10.0395 16.3254 10.0395C15.6131 10.0395 14.5365 9.23306 13.3781 9.25733C11.8858 9.28009 10.4899 10.1442 9.7244 11.4855C8.14413 14.2204 9.32308 18.2398 10.8358 20.4505C11.593 21.5331 12.4776 22.7424 13.636 22.6999C14.7687 22.6529 15.192 21.9777 16.5599 21.9777C17.914 21.9777 18.3116 22.6999 19.4928 22.6726C20.7089 22.6529 21.4744 21.5854 22.205 20.4922C23.0797 19.2511 23.431 18.0289 23.4454 17.9659C23.4173 17.9568 21.0837 17.0669 21.0609 14.3729Z" fill="white"/>
<path d="M18.8297 7.76486C19.4389 7.00241 19.8554 5.96609 19.7401 4.91309C18.8578 4.95254 17.7547 5.52304 17.1197 6.26956C16.5583 6.92579 16.0561 8.00232 16.1858 9.01512C17.1766 9.08871 18.1932 8.51516 18.8297 7.76486Z" fill="white"/>
<path d="M34.7454 18.6761L33.961 16.2529C33.8783 16.0056 33.722 15.423 33.4929 14.505H33.4648C33.3738 14.9002 33.2266 15.4821 33.0248 16.2529L32.254 18.6761H34.7454ZM37.4576 22.5444H35.8743L35.0071 19.8186H31.9923L31.1661 22.5444H29.6245L32.6113 13.2661H34.4564L37.4576 22.5444Z" fill="white"/>
<path d="M43.6249 19.1717C43.6249 18.5208 43.4777 17.9836 43.1841 17.5611C42.8624 17.1211 42.4315 16.9003 41.8898 16.9003C41.5234 16.9003 41.1903 17.0232 40.8922 17.2652C40.594 17.5087 40.3991 17.8274 40.3073 18.2226C40.261 18.4062 40.2382 18.5572 40.2382 18.6763V19.7915C40.2382 20.2778 40.3877 20.689 40.6858 21.0236C40.984 21.3589 41.3717 21.5266 41.8489 21.5266C42.4087 21.5266 42.845 21.3103 43.1568 20.8794C43.4686 20.4477 43.6249 19.8788 43.6249 19.1717ZM45.1391 19.1171C45.1391 20.2551 44.8319 21.1541 44.2166 21.8148C43.6658 22.4028 42.9823 22.6964 42.1652 22.6964C41.2844 22.6964 40.6509 22.3793 40.2655 21.7466H40.2382V25.2705H38.7513V18.0572C38.7513 17.3418 38.7331 16.6075 38.6967 15.8541H40.0038L40.0865 16.9147H40.1146C40.61 16.1158 41.3626 15.7168 42.3723 15.7168C43.1613 15.7168 43.8198 16.0286 44.3479 16.6522C44.8751 17.2773 45.1391 18.099 45.1391 19.1171Z" fill="white"/>
<path d="M51.3198 19.1717C51.3198 18.5208 51.1726 17.9836 50.879 17.5611C50.5574 17.1211 50.1272 16.9003 49.5848 16.9003C49.2176 16.9003 48.8853 17.0232 48.5871 17.2652C48.289 17.5087 48.094 17.8274 48.0022 18.2226C47.9567 18.4062 47.9339 18.5572 47.9339 18.6763V19.7915C47.9339 20.2778 48.0826 20.689 48.38 21.0236C48.6782 21.3589 49.0666 21.5266 49.5446 21.5266C50.1037 21.5266 50.5399 21.3103 50.8517 20.8794C51.1635 20.4477 51.3198 19.8788 51.3198 19.1717ZM52.8341 19.1171C52.8341 20.2551 52.5261 21.1541 51.9108 21.8148C51.3608 22.4028 50.6772 22.6964 49.8602 22.6964C48.9794 22.6964 48.3459 22.3793 47.9605 21.7466H47.9339V25.2705H46.447V18.0572C46.447 17.3418 46.428 16.6075 46.3916 15.8541H47.6995L47.7822 16.9147H47.8095C48.3049 16.1158 49.0567 15.7168 50.0673 15.7168C50.8555 15.7168 51.5148 16.0286 52.0428 16.6522C52.5701 17.2773 52.8341 18.099 52.8341 19.1171Z" fill="white"/>
<path d="M61.4379 19.9429C61.4379 20.7319 61.1641 21.3737 60.614 21.8699C60.0094 22.4116 59.168 22.6824 58.087 22.6824C57.0886 22.6824 56.2874 22.4889 55.6813 22.1035L56.0265 20.8647C56.6789 21.2599 57.3951 21.4572 58.175 21.4572C58.7348 21.4572 59.1703 21.3305 59.4836 21.0778C59.7954 20.8252 59.951 20.4869 59.951 20.0643C59.951 19.6872 59.8228 19.3701 59.5656 19.1129C59.3091 18.8558 58.882 18.6168 58.2857 18.3952C56.6607 17.7891 55.8489 16.9022 55.8489 15.7347C55.8489 14.9715 56.1334 14.3463 56.7032 13.8593C57.2707 13.3722 58.0278 13.1279 58.9746 13.1279C59.819 13.1279 60.52 13.2751 61.0798 13.5687L60.7081 14.7803C60.1854 14.4958 59.5944 14.3532 58.9321 14.3532C58.4094 14.3532 58.0005 14.4821 57.7084 14.7393C57.4603 14.9684 57.3367 15.2484 57.3367 15.5791C57.3367 15.9463 57.4778 16.249 57.7623 16.4872C58.0103 16.708 58.4595 16.9462 59.1119 17.2034C59.91 17.5251 60.4972 17.9006 60.8742 18.3315C61.2498 18.7632 61.4379 19.3011 61.4379 19.9429Z" fill="white"/>
<path d="M66.3524 16.9689H64.7145V20.2182C64.7145 21.0437 65.0028 21.4571 65.5816 21.4571C65.8472 21.4571 66.0679 21.4336 66.2424 21.3881L66.2826 22.517C65.9906 22.627 65.6052 22.6823 65.1272 22.6823C64.54 22.6823 64.081 22.5025 63.7503 22.1452C63.421 21.7871 63.2541 21.1863 63.2541 20.3419V16.9689H62.2777V15.8537H63.2541V14.6285L64.7145 14.1885V15.8537H66.3524V16.9689Z" fill="white"/>
<path d="M72.2024 19.1929C72.2024 18.5762 72.0704 18.0466 71.8041 17.6051C71.4915 17.071 71.0462 16.8047 70.4689 16.8047C69.871 16.8047 69.4181 17.071 69.1056 17.6051C68.8393 18.0466 68.7073 18.5845 68.7073 19.221C68.7073 19.8378 68.8393 20.3666 69.1056 20.8081C69.4272 21.3414 69.8763 21.6085 70.4552 21.6085C71.0234 21.6085 71.4688 21.3369 71.7897 20.7945C72.0651 20.3438 72.2024 19.809 72.2024 19.1929ZM73.7455 19.1444C73.7455 20.1724 73.4511 21.0167 72.8647 21.6775C72.2486 22.3573 71.4316 22.6964 70.4135 22.6964C69.431 22.6964 68.6496 22.3702 68.067 21.7193C67.4843 21.0676 67.193 20.2452 67.193 19.2551C67.193 18.2181 67.4927 17.3684 68.0943 16.7084C68.6944 16.0468 69.5054 15.7168 70.5235 15.7168C71.5052 15.7168 72.2949 16.0423 72.892 16.6947C73.461 17.3282 73.7455 18.1445 73.7455 19.1444Z" fill="white"/>
<path d="M78.5773 17.162C78.4301 17.1347 78.2731 17.1211 78.1084 17.1211C77.5857 17.1211 77.1814 17.3183 76.8969 17.7136C76.6488 18.0618 76.5251 18.5026 76.5251 19.0344V22.5447H75.0389L75.0526 17.9609C75.0526 17.1893 75.0336 16.4876 74.9972 15.8541H76.2922L76.3461 17.1347H76.387C76.5441 16.6947 76.7914 16.3404 77.1305 16.0749C77.4621 15.8359 77.8201 15.7168 78.2055 15.7168C78.3428 15.7168 78.4665 15.7267 78.5773 15.7441V17.162Z" fill="white"/>
<path d="M83.8075 18.4972C83.8173 18.0572 83.7202 17.6764 83.5192 17.3547C83.2612 16.942 82.8667 16.7357 82.3342 16.7357C81.8479 16.7357 81.4534 16.9367 81.1507 17.3418C80.9026 17.6627 80.7562 18.0481 80.7107 18.4972H83.8075ZM85.2254 18.8834C85.2254 19.1489 85.2072 19.3742 85.1708 19.5571H80.7107C80.7289 20.2186 80.9436 20.7231 81.3578 21.0721C81.7333 21.3839 82.2196 21.5402 82.8159 21.5402C83.4767 21.5402 84.0783 21.434 84.6207 21.2231L84.8537 22.2556C84.2202 22.531 83.4729 22.6691 82.6103 22.6691C81.5732 22.6691 80.7585 22.3641 80.1659 21.7526C79.575 21.1427 79.2783 20.3241 79.2783 19.2953C79.2783 18.2863 79.5537 17.4465 80.1045 16.7766C80.6826 16.0605 81.4625 15.7031 82.4449 15.7031C83.4084 15.7031 84.1382 16.0605 84.6344 16.7766C85.0274 17.3456 85.2254 18.0481 85.2254 18.8834Z" fill="white"/>
<path d="M33.483 7.57864C33.483 7.04607 33.3419 6.63791 33.0605 6.35418C32.7782 6.06968 32.3671 5.92782 31.8261 5.92782C31.5955 5.92782 31.3998 5.94375 31.2374 5.97561V9.38423C31.3277 9.39789 31.4923 9.40396 31.7313 9.40396C32.2904 9.40396 32.7221 9.24843 33.0263 8.93739C33.3305 8.62634 33.483 8.17342 33.483 7.57864ZM34.2538 7.55816C34.2538 8.37902 34.008 8.99656 33.5164 9.41154C33.0612 9.7939 32.4141 9.98584 31.5758 9.98584C31.1608 9.98584 30.8042 9.96764 30.5068 9.93198V5.44759C30.8953 5.38462 31.314 5.35352 31.7654 5.35352C32.5628 5.35352 33.1652 5.52649 33.571 5.87395C34.0255 6.26617 34.2538 6.82758 34.2538 7.55816Z" fill="white"/>
<path d="M37.5806 8.29806C37.5806 7.99536 37.5153 7.73514 37.3848 7.51816C37.2316 7.25567 37.0131 7.12442 36.7286 7.12442C36.4358 7.12442 36.212 7.25567 36.0587 7.51816C35.9282 7.73514 35.863 7.99991 35.863 8.31095C35.863 8.61442 35.9282 8.87463 36.0587 9.09161C36.2173 9.3541 36.4373 9.48459 36.7218 9.48459C37.001 9.48459 37.2202 9.35107 37.378 9.08478C37.5131 8.86325 37.5806 8.60076 37.5806 8.29806ZM38.3385 8.27454C38.3385 8.77904 38.1943 9.19403 37.9053 9.51873C37.6033 9.85254 37.202 10.0194 36.7021 10.0194C36.2188 10.0194 35.8349 9.85936 35.5481 9.53921C35.2621 9.21906 35.1195 8.81546 35.1195 8.3284C35.1195 7.81859 35.2667 7.40209 35.5618 7.07739C35.8577 6.75268 36.2552 6.59033 36.7559 6.59033C37.2384 6.59033 37.6253 6.75041 37.9189 7.07056C38.1981 7.38161 38.3385 7.78293 38.3385 8.27454Z" fill="white"/>
<path d="M43.816 6.6582L42.788 9.94544H42.1189L41.6925 8.51766C41.584 8.16185 41.4968 7.80756 41.4285 7.4563H41.4156C41.3526 7.81666 41.2646 8.17095 41.1516 8.51766L40.6987 9.94544H40.022L39.0547 6.6582H39.8058L40.1775 8.22027C40.2678 8.59049 40.3421 8.94175 40.4013 9.27555H40.4142C40.4681 9.00092 40.5583 8.65118 40.685 8.2271L41.1516 6.6582H41.7464L42.1932 8.19371C42.3017 8.56773 42.389 8.92885 42.4565 9.27555H42.477C42.527 8.93719 42.6006 8.57683 42.7 8.19371L43.0991 6.6582H43.816Z" fill="white"/>
<path d="M47.6039 9.94509H46.8733V8.06288C46.8733 7.48251 46.6525 7.19194 46.211 7.19194C45.994 7.19194 45.8188 7.27236 45.683 7.43168C45.5487 7.59099 45.4804 7.77914 45.4804 7.99536V9.94509H44.7498V7.59782C44.7498 7.30953 44.7407 6.99621 44.7233 6.65785H45.3651L45.3992 7.17146H45.4197C45.5047 7.01214 45.6314 6.87938 45.7983 6.77468C45.9963 6.65178 46.2178 6.59033 46.4606 6.59033C46.7678 6.59033 47.0227 6.68972 47.2253 6.88772C47.4779 7.13125 47.6039 7.49465 47.6039 7.97639V9.94509Z" fill="white"/>
<path d="M49.6189 9.94485H48.889V5.14941H49.6189V9.94485Z" fill="white"/>
<path d="M53.1626 8.29806C53.1626 7.99536 53.0974 7.73514 52.9661 7.51816C52.8136 7.25567 52.5944 7.12442 52.3114 7.12442C52.017 7.12442 51.794 7.25567 51.6415 7.51816C51.511 7.73514 51.445 7.99991 51.445 8.31095C51.445 8.61442 51.511 8.87463 51.6415 9.09161C51.7993 9.3541 52.0201 9.48459 52.3046 9.48459C52.5838 9.48459 52.8015 9.35107 52.9593 9.08478C53.0958 8.86325 53.1626 8.60076 53.1626 8.29806ZM53.9213 8.27454C53.9213 8.77904 53.7764 9.19403 53.4881 9.51873C53.1854 9.85254 52.784 10.0194 52.2841 10.0194C51.8008 10.0194 51.4169 9.85936 51.1309 9.53921C50.8449 9.21906 50.7015 8.81546 50.7015 8.3284C50.7015 7.81859 50.8487 7.40209 51.1446 7.07739C51.4397 6.75268 51.8372 6.59033 52.3372 6.59033C52.8205 6.59033 53.2074 6.75041 53.5017 7.07056C53.7809 7.38161 53.9213 7.78293 53.9213 8.27454Z" fill="white"/>
<path d="M56.6987 8.81546V8.30792C55.893 8.29426 55.4901 8.51579 55.4901 8.97098C55.4901 9.14244 55.5356 9.27065 55.6297 9.35638C55.7238 9.4421 55.8437 9.48459 55.987 9.48459C56.1479 9.48459 56.2973 9.43452 56.4331 9.33286C56.5712 9.2312 56.6554 9.10147 56.6865 8.94367C56.6949 8.90801 56.6987 8.86477 56.6987 8.81546ZM57.4573 9.94509H56.8011L56.7465 9.56576H56.726C56.5014 9.86847 56.1813 10.0194 55.7663 10.0194C55.456 10.0194 55.2049 9.92006 55.016 9.72129C54.8445 9.54149 54.7588 9.31844 54.7588 9.05216C54.7588 8.65083 54.9257 8.34434 55.2625 8.13191C55.5986 7.92025 56.0713 7.81631 56.6797 7.82087V7.76017C56.6797 7.32774 56.4529 7.11077 55.9977 7.11077C55.6737 7.11077 55.3877 7.19194 55.1411 7.35429L54.9925 6.87407C55.2974 6.68516 55.6745 6.59033 56.1206 6.59033C56.9794 6.59033 57.4095 7.04325 57.4095 7.94984V9.16064C57.4095 9.48914 57.4262 9.75088 57.4573 9.94509Z" fill="white"/>
<path d="M60.8522 8.55804V8.01029C60.8522 7.91546 60.8454 7.83884 60.8317 7.78042C60.7908 7.60441 60.7028 7.45723 60.5677 7.33737C60.4312 7.21826 60.268 7.15832 60.0791 7.15832C59.8068 7.15832 59.5928 7.26605 59.4358 7.48303C59.281 7.69924 59.2014 7.97615 59.2014 8.31451C59.2014 8.63921 59.2765 8.90322 59.4267 9.10578C59.5845 9.322 59.7984 9.43049 60.0655 9.43049C60.3052 9.43049 60.4972 9.34021 60.6428 9.16041C60.7832 8.9935 60.8522 8.79246 60.8522 8.55804ZM61.6093 9.94485H60.9615L60.9273 9.41683H60.9068C60.6997 9.81816 60.3469 10.0192 59.8515 10.0192C59.4555 10.0192 59.1255 9.86368 58.8645 9.55263C58.6028 9.24158 58.4716 8.83798 58.4716 8.34182C58.4716 7.80925 58.6134 7.37909 58.8979 7.04984C59.1733 6.74334 59.5109 6.59009 59.913 6.59009C60.3538 6.59009 60.6633 6.73879 60.8386 7.03618H60.8522V5.14941H61.5835V9.05875C61.5835 9.3789 61.5919 9.67401 61.6093 9.94485Z" fill="white"/>
<path d="M67.1014 8.29806C67.1014 7.99536 67.0361 7.73514 66.9056 7.51816C66.7516 7.25567 66.5339 7.12442 66.2494 7.12442C65.9565 7.12442 65.7327 7.25567 65.5787 7.51816C65.4482 7.73514 65.383 7.99991 65.383 8.31095C65.383 8.61442 65.4482 8.87463 65.5787 9.09161C65.7373 9.3541 65.9573 9.48459 66.2426 9.48459C66.5217 9.48459 66.741 9.35107 66.8988 9.08478C67.0338 8.86325 67.1014 8.60076 67.1014 8.29806ZM67.8585 8.27454C67.8585 8.77904 67.7143 9.19403 67.4261 9.51873C67.1234 9.85254 66.7228 10.0194 66.2221 10.0194C65.7396 10.0194 65.3557 9.85936 65.0682 9.53921C64.7822 9.21906 64.6395 8.81546 64.6395 8.3284C64.6395 7.81859 64.7867 7.40209 65.0818 7.07739C65.3777 6.75268 65.7752 6.59033 66.2767 6.59033C66.7584 6.59033 67.1469 6.75041 67.439 7.07056C67.7181 7.38161 67.8585 7.78293 67.8585 8.27454Z" fill="white"/>
<path d="M71.7874 9.94509H71.0576V8.06288C71.0576 7.48251 70.8368 7.19194 70.3938 7.19194C70.1776 7.19194 70.0023 7.27236 69.8673 7.43168C69.7322 7.59099 69.664 7.77914 69.664 7.99536V9.94509H68.9334V7.59782C68.9334 7.30953 68.925 6.99621 68.9076 6.65785H69.5487L69.5828 7.17146H69.6033C69.689 7.01214 69.8157 6.87938 69.9818 6.77468C70.1806 6.65178 70.4006 6.59033 70.6449 6.59033C70.9514 6.59033 71.2055 6.68972 71.4089 6.88772C71.6623 7.13125 71.7874 7.49465 71.7874 7.97639V9.94509Z" fill="white"/>
<path d="M76.7043 7.20591H75.9002V8.80211C75.9002 9.20799 76.0428 9.41131 76.3258 9.41131C76.457 9.41131 76.5655 9.39993 76.652 9.37717L76.6709 9.93174C76.526 9.98561 76.3371 10.0129 76.1027 10.0129C75.8144 10.0129 75.5891 9.92491 75.4275 9.74891C75.2636 9.5729 75.1832 9.27778 75.1832 8.8628V7.20591H74.703V6.65816H75.1832V6.05655L75.9002 5.84033V6.65816H76.7043V7.20591Z" fill="white"/>
<path d="M80.5734 9.94485H79.8421V8.07553C79.8421 7.48606 79.6213 7.1917 79.1805 7.1917C78.8414 7.1917 78.61 7.36316 78.4833 7.70455C78.4613 7.77663 78.4492 7.86463 78.4492 7.96781V9.94485H77.7194V5.14941H78.4492V7.13025H78.4628C78.6927 6.77065 79.0227 6.59009 79.4498 6.59009C79.7525 6.59009 80.0029 6.68948 80.2017 6.88749C80.4497 7.13556 80.5734 7.50275 80.5734 7.98981V9.94485Z" fill="white"/>
<path d="M83.8659 7.95714C83.8713 7.74093 83.8242 7.55354 83.7248 7.39574C83.5981 7.19242 83.4047 7.09152 83.1429 7.09152C82.9047 7.09152 82.7098 7.19015 82.5618 7.38891C82.4404 7.54671 82.3684 7.73638 82.3448 7.95714H83.8659ZM84.5631 8.14605C84.5631 8.2773 84.554 8.3873 84.5358 8.47758H82.3448C82.3547 8.80228 82.4594 9.05036 82.662 9.22182C82.8478 9.37506 83.0876 9.45169 83.3804 9.45169C83.7043 9.45169 83.9995 9.4001 84.2665 9.29616L84.3811 9.8037C84.0693 9.93874 83.7028 10.0063 83.278 10.0063C82.7689 10.0063 82.3684 9.85605 82.0778 9.55638C81.7865 9.25671 81.6423 8.85387 81.6423 8.34937C81.6423 7.85321 81.7774 7.4405 82.0482 7.11125C82.3319 6.75999 82.7143 6.58398 83.1976 6.58398C83.6702 6.58398 84.0298 6.75999 84.2718 7.11125C84.4668 7.39119 84.5631 7.73638 84.5631 8.14605Z" fill="white"/>
</svg>
