<svg width="102" height="27" viewBox="0 0 102 27" fill="none" xmlns="http://www.w3.org/2000/svg">
<g clip-path="url(#clip0_74120_76)">
<path d="M102.014 24.3129C102.015 24.6681 101.939 25.02 101.792 25.3479C101.644 25.6759 101.428 25.9735 101.156 26.2235C100.883 26.4734 100.56 26.6708 100.205 26.8041C99.8491 26.9374 99.4686 27.004 99.0852 27.0001H2.85906C2.48133 27.0066 2.10607 26.9424 1.75575 26.8114C1.40542 26.6803 1.08725 26.4852 0.820294 26.2375C0.553334 25.9898 0.343076 25.6948 0.202117 25.3701C0.0611573 25.0453 -0.00760423 24.6976 -4.88656e-05 24.3477V2.64406C-0.00709767 2.29464 0.0620784 1.9475 0.203333 1.62345C0.344587 1.2994 0.555011 1.00511 0.821993 0.758211C1.08897 0.511317 1.40701 0.316905 1.75705 0.186628C2.10709 0.0563519 2.48192 -0.00710638 2.85906 5.71985e-05H99.0852C100.71 5.71985e-05 102 1.14399 102 2.64766V24.3513L102.014 24.3129Z" fill="#1C1A16"/>
<path d="M21.1605 5.38281H11.2086V23.139H21.1605V5.38281Z" fill="url(#paint0_linear_74120_76)"/>
<path d="M23.8333 5.36572H11.5361V14.2234H23.8333V5.36572Z" fill="url(#paint1_linear_74120_76)"/>
<path d="M23.8332 14.2236H11.4558V23.1737H23.8332V14.2236Z" fill="url(#paint2_linear_74120_76)"/>
<path d="M28.1329 11.7681H21.1605V16.6796H28.1329V11.7681Z" fill="url(#paint3_linear_74120_76)"/>
<path d="M73.8618 17.7971C73.5099 17.8013 73.1609 17.7363 72.838 17.6064C72.5276 17.4766 72.2597 17.2731 72.0615 17.0165H71.9981C72.0393 17.3091 72.0604 17.6039 72.0615 17.899V20.0874H71.1865V12.3832H71.8932L72.0123 13.111H72.055C72.2506 12.8421 72.5182 12.6248 72.8316 12.4803C73.1522 12.3461 73.501 12.2797 73.8528 12.2861C74.6138 12.2861 75.201 12.5259 75.6143 13.0055C76.0276 13.4852 76.2347 14.161 76.2356 15.0332C76.2356 15.9061 76.0255 16.5856 75.6053 17.0716C75.185 17.5577 74.6009 17.7975 73.8528 17.7911L73.8618 17.7971ZM73.7233 12.9647C73.1357 12.9647 72.7116 13.115 72.4511 13.4156C72.1905 13.7162 72.0559 14.1958 72.0472 14.8545V15.0332C72.0472 15.7798 72.1818 16.3146 72.4511 16.6376C72.7203 16.9605 73.1517 17.1204 73.7454 17.1172C73.9747 17.1241 74.2022 17.0765 74.4061 16.9789C74.61 16.8813 74.7835 16.7369 74.9102 16.5596C75.1907 16.1879 75.3313 15.6751 75.3322 15.0212C75.333 14.3673 75.1924 13.8589 74.9102 13.4959C74.7757 13.3232 74.5969 13.1842 74.3899 13.0914C74.183 12.9987 73.9543 12.9552 73.7246 12.9647" fill="#FBFBFB"/>
<path d="M78.256 10.1514H77.3876V17.7009H78.256V10.1514Z" fill="#FBFBFB"/>
<path d="M83.2546 17.6999L83.0824 16.9432H83.0397C82.8176 17.2297 82.5259 17.4639 82.1881 17.6267C81.8497 17.7535 81.4864 17.8135 81.1216 17.803C80.5529 17.803 80.1073 17.6675 79.7846 17.3965C79.4618 17.1255 79.3001 16.739 79.2992 16.237C79.2992 15.1626 80.2263 14.5998 82.0806 14.5486L83.054 14.5187V14.1889C83.054 13.7716 82.9582 13.4695 82.764 13.2644C82.5699 13.0594 82.2593 12.967 81.8347 12.967C81.3558 12.967 80.8144 13.1025 80.2104 13.3735L79.9438 12.7584C80.2377 12.612 80.5498 12.4993 80.8731 12.4226C81.2041 12.3432 81.5446 12.3029 81.8865 12.3027C82.5712 12.3027 83.0773 12.443 83.4086 12.7248C83.7399 13.0066 83.903 13.4575 83.903 14.0786V17.707L83.2546 17.6999ZM81.2911 17.1327C81.8321 17.1327 82.2571 16.9952 82.566 16.7202C82.8749 16.4452 83.0294 16.0603 83.0294 15.5655V15.0858L82.1596 15.1194C81.4693 15.1418 80.971 15.2413 80.6647 15.418C80.5151 15.5038 80.3935 15.6257 80.3128 15.7706C80.2321 15.9154 80.1954 16.0779 80.2065 16.2406C80.1974 16.3644 80.2184 16.4886 80.2679 16.604C80.3174 16.7194 80.3941 16.823 80.4925 16.9073C80.7199 17.0708 81.0039 17.1518 81.2911 17.1351" fill="#FBFBFB"/>
<path d="M84.4039 12.3828H85.3358L86.5887 15.4153C86.7973 15.9036 86.9703 16.4044 87.1064 16.9142H87.1479C87.1932 16.7487 87.2889 16.4669 87.4326 16.0676C87.5763 15.6683 88.0513 14.4405 88.8563 12.3828H89.7882L87.3213 18.437C87.0771 19.0358 86.7915 19.4607 86.4645 19.7117C86.1259 19.9667 85.6994 20.0999 85.2633 20.087C84.9989 20.087 84.7354 20.0593 84.4777 20.0043V19.3591C84.6905 19.4006 84.9075 19.4203 85.1249 19.4179C85.722 19.4179 86.1478 19.1073 86.4023 18.4862L86.722 17.7296L84.4039 12.3828Z" fill="#FBFBFB"/>
<path d="M57.7582 12.8771C58.0339 13.0881 58.6099 13.533 58.6099 14.3784C58.6099 15.2009 58.1064 15.5919 57.6016 15.9576C57.445 16.1027 57.2664 16.2585 57.2664 16.5032C57.2664 16.7478 57.445 16.8809 57.5783 16.9828L58.0106 17.2934C58.5387 17.7047 59.0189 18.0836 59.0189 18.8522C59.0189 19.8978 57.9265 20.9542 55.8621 20.9542C54.1213 20.9542 53.2812 20.1868 53.2812 19.363C53.2812 18.9625 53.4961 18.3965 54.2054 18.0056C54.9483 17.5835 55.9579 17.526 56.4976 17.4948C56.3293 17.2946 56.1378 17.0835 56.1378 16.7394C56.1413 16.588 56.1825 16.4395 56.2581 16.3053C56.1287 16.3161 55.9928 16.3269 55.8699 16.3269C54.5988 16.3269 53.8779 15.448 53.8779 14.581C53.884 14.2962 53.9558 14.0158 54.0884 13.7588C54.221 13.5017 54.4113 13.2739 54.6467 13.0905C55.3301 12.5677 56.1468 12.479 56.7953 12.479H59.2674L58.5025 12.8771H57.7582ZM56.9053 17.815C56.8138 17.8055 56.7217 17.8019 56.6296 17.8042C56.2027 17.8116 55.7788 17.8717 55.369 17.9828C55.1101 18.0704 54.3335 18.3426 54.3335 19.128C54.3335 19.9134 55.1619 20.4854 56.4458 20.4854C57.5977 20.4854 58.2112 19.9721 58.2112 19.2863C58.2112 18.7179 57.8152 18.4181 56.9014 17.8174L56.9053 17.815ZM57.2509 15.7046C57.5266 15.448 57.5499 15.093 57.5499 14.8928C57.5499 14.0918 57.0321 12.8459 56.0381 12.8459C55.8778 12.8481 55.7198 12.8819 55.5747 12.9452C55.4296 13.0085 55.3008 13.0997 55.1968 13.2128C55.0115 13.452 54.9202 13.7427 54.938 14.0366C54.938 14.7813 55.4065 16.0163 56.4393 16.0163C56.7438 16.0094 57.0347 15.8983 57.256 15.7046" fill="#FBFBFB"/>
<path d="M50.2008 17.6375C48.2956 17.6375 47.277 16.2609 47.277 15.0163C47.277 13.5618 48.5583 12.3195 50.3833 12.3195C50.7587 12.3118 51.1319 12.374 51.4808 12.5025C51.8297 12.631 52.1472 12.8232 52.4143 13.0676C52.6815 13.312 52.8929 13.6036 53.0361 13.9252C53.1792 14.2467 53.2512 14.5917 53.2476 14.9395C53.2476 16.2489 52.1578 17.6375 50.2034 17.6375H50.2008ZM51.7009 16.7382C51.9895 16.3784 52.062 15.9384 52.062 15.5055C52.062 14.5282 51.5585 12.6624 50.0714 12.6624C49.675 12.6661 49.293 12.7999 48.9932 13.0401C48.526 13.4287 48.4418 13.9179 48.4418 14.3951C48.4418 15.4935 49.0295 17.3029 50.4791 17.3029C50.716 17.3029 50.9497 17.2518 51.1618 17.1538C51.3738 17.0558 51.5584 16.9135 51.7009 16.7382" fill="#FBFBFB"/>
<path d="M43.7047 17.6375C41.7995 17.6375 40.7795 16.2609 40.7795 15.0163C40.7795 13.5618 42.0635 12.3195 43.8859 12.3195C44.2612 12.3118 44.6345 12.374 44.9834 12.5025C45.3323 12.631 45.6497 12.8232 45.9169 13.0676C46.1841 13.312 46.3955 13.6036 46.5386 13.9252C46.6818 14.2467 46.7537 14.5917 46.7502 14.9395C46.7502 16.2489 45.6604 17.6375 43.706 17.6375H43.7047ZM45.2048 16.7382C45.4921 16.3784 45.5633 15.9384 45.5633 15.5055C45.5633 14.5282 45.0598 12.6624 43.5739 12.6624C43.1776 12.6661 42.7955 12.7999 42.4958 13.0401C42.0285 13.4287 41.9444 13.9179 41.9444 14.3951C41.9444 15.4935 42.5307 17.3029 43.9816 17.3029C44.2188 17.3029 44.4527 17.2518 44.6649 17.1538C44.8772 17.0558 45.062 16.9135 45.2048 16.7382Z" fill="#FBFBFB"/>
<path d="M39.8645 17.4638L38.1418 17.8319C37.4854 17.943 36.8207 18.0063 36.1537 18.0214C32.8273 18.0214 31.5615 15.7551 31.5615 13.9804C31.5615 11.8149 33.358 9.80518 36.4307 9.80518C37.0539 9.80822 37.6738 9.88888 38.2738 10.045C38.846 10.1792 39.3857 10.4123 39.8645 10.7321L38.864 11.6134L38.4407 11.7033L38.7423 11.2561C38.3333 10.888 37.5852 10.2069 36.1641 10.2069C34.2601 10.2069 32.8261 11.5475 32.8261 13.5008C32.8261 15.5992 34.4646 17.5777 37.0908 17.5777C37.6171 17.5897 38.1398 17.4943 38.6219 17.2983V15.4997L36.8022 15.5884L37.7664 15.1088H40.3201L40.0081 15.387C39.9757 15.4074 39.9482 15.4338 39.9273 15.4646C39.9063 15.4953 39.8924 15.5297 39.8865 15.5656C39.8748 15.6663 39.8632 15.9913 39.8632 16.1016L39.8645 17.4638Z" fill="#FBFBFB"/>
<path d="M61.5673 17.1469C61.1686 17.1133 61.0858 17.0462 61.0858 16.6097V10.2869C61.0858 10.2629 61.0858 10.2389 61.0923 10.2149C61.1415 9.82524 61.2618 9.75809 61.6359 9.55664H59.9119L59.0059 9.95834H59.9261V16.8519C59.9261 17.0738 59.8795 17.1085 59.6012 17.4431H61.7381L62.1847 17.2033C61.9802 17.1793 61.7744 17.1685 61.5699 17.1469" fill="#FBFBFB"/>
<path d="M66.4701 17.2442C66.3407 17.3114 66.2112 17.3893 66.0818 17.4445C65.7141 17.5907 65.3169 17.6622 64.9169 17.6543C64.3493 17.678 63.7892 17.5262 63.3249 17.2226C62.4759 16.6675 62.1057 15.7142 62.1057 14.8832C62.1057 13.1649 63.6123 12.3219 64.8457 12.3219C65.2801 12.3169 65.7074 12.4245 66.0792 12.6325C66.4973 12.8874 66.796 13.2793 66.9153 13.7297L64.1041 14.7837L63.1826 14.8496C63.4803 16.2574 64.5105 17.0776 65.6417 17.0776C66.2527 17.0776 66.6953 16.8785 67.1017 16.6902L66.4701 17.2442ZM65.3453 13.9407C65.5731 13.8628 65.6922 13.7956 65.6922 13.641C65.6922 13.1985 65.1538 12.6817 64.5079 12.6817C64.0277 12.6817 63.1308 13.0258 63.1308 14.2225C63.1308 14.4108 63.1554 14.611 63.1683 14.8113L65.3453 13.9407Z" fill="#FBFBFB"/>
<path d="M67.6259 12.3973V13.13H67.5288V12.3973H67.2687V12.3218H67.8861V12.3973H67.6259Z" fill="#FBFBFB"/>
<path d="M68.7015 13.13V12.3913H68.6976L68.4542 13.13H68.3792L68.1333 12.3913H68.1307V13.13H68.0439V12.3218H68.1928L68.4154 12.9741H68.418L68.6367 12.3218H68.7882V13.13H68.7015Z" fill="#FBFBFB"/>
<path d="M33.956 7.63121H33.3567C33.3211 7.41102 33.2639 7.19429 33.1859 6.9837H32.3213C32.2399 7.1937 32.181 7.41057 32.1452 7.63121H31.5809C31.5809 7.58724 31.7263 7.21752 32.0171 6.52205C32.3079 5.82657 32.4537 5.44406 32.4546 5.37451H33.1613C33.1613 5.44006 33.2933 5.81698 33.5573 6.50526C33.8214 7.19354 33.9534 7.56886 33.9534 7.63121H33.956ZM33.0888 6.65275C32.9642 6.33542 32.8571 6.01245 32.7678 5.68508H32.7458C32.653 6.01258 32.5424 6.33555 32.4145 6.65275H33.0888Z" fill="#FCFCFD"/>
<path d="M36.3699 7.63116H35.9078C35.9078 7.584 35.7352 7.33379 35.3901 6.88053C35.0316 6.40089 34.8258 6.07714 34.7766 5.90207H34.7468C34.7762 6.12971 34.7917 6.3587 34.7934 6.58795C34.7934 6.87334 34.802 7.22107 34.8193 7.63116H34.3585C34.3775 7.27383 34.387 6.88053 34.387 6.45126C34.387 6.02198 34.3775 5.66225 34.3585 5.37207H34.9151C34.9151 5.43282 35.0691 5.67744 35.3771 6.10592C35.705 6.55917 35.8931 6.86694 35.9415 7.02922H35.9699C35.9421 6.79907 35.9274 6.56772 35.9259 6.33614C35.9259 6.02358 35.9169 5.70382 35.8987 5.37687H36.3699C36.3517 5.66345 36.3427 6.02318 36.3427 6.45605C36.3427 6.88892 36.3517 7.28343 36.3699 7.63596" fill="#FCFCFD"/>
<path d="M39.0802 6.42452C39.0851 6.7402 38.9638 7.04641 38.7397 7.28427C38.6209 7.40821 38.4734 7.50569 38.3083 7.56944C38.1431 7.63318 37.9645 7.66154 37.7859 7.65239C37.6003 7.65239 37.3458 7.6452 37.0222 7.63081C37.0377 7.28187 37.0468 6.88857 37.0468 6.4509C37.0468 6.01323 37.0377 5.67149 37.0222 5.37172H37.3497C37.4027 5.37172 37.4791 5.37172 37.5891 5.37172L37.7962 5.36572C38.2466 5.36572 38.5732 5.47004 38.776 5.67869C38.977 5.88282 39.0859 6.15063 39.0802 6.42692V6.42452ZM38.5689 6.50246C38.5759 6.29788 38.5012 6.09809 38.3592 5.94129C38.2778 5.8614 38.1782 5.79946 38.0675 5.76003C37.9568 5.7206 37.838 5.70468 37.7198 5.71346C37.6458 5.71461 37.5719 5.71982 37.4985 5.72905C37.5115 5.95927 37.5179 6.20149 37.5179 6.4485C37.5179 6.7243 37.5244 6.99889 37.5361 7.26988C37.6161 7.28517 37.6976 7.2928 37.7794 7.29267C37.8915 7.30078 38.0042 7.28402 38.1079 7.24378C38.2117 7.20353 38.3036 7.14096 38.3761 7.06124C38.5071 6.89889 38.575 6.70029 38.5689 6.49767" fill="#FCFCFD"/>
<path d="M41.5807 7.63104H41.0294C40.9511 7.36754 40.8395 7.11356 40.6967 6.87441C40.6516 6.82419 40.594 6.78486 40.5288 6.7598C40.4637 6.73474 40.3929 6.72469 40.3227 6.73052H40.1143C40.1143 7.02789 40.1143 7.33006 40.1311 7.62984H39.6134C39.6298 7.2805 39.638 6.8872 39.638 6.44993C39.638 6.02944 39.6298 5.66972 39.6134 5.37074H39.937H40.1725C40.2916 5.37074 40.4016 5.36475 40.5026 5.36475C41.0747 5.36475 41.3607 5.54661 41.3607 5.91033C41.3607 6.19692 41.1976 6.39837 40.8715 6.50988V6.53626C41.0159 6.58371 41.1347 6.68132 41.2028 6.80846C41.354 7.07339 41.4838 7.34833 41.5911 7.63104H41.5807ZM40.8896 6.03624C40.8896 5.80681 40.73 5.6921 40.4107 5.6921C40.3066 5.69121 40.2026 5.69923 40.1001 5.71608C40.113 5.89475 40.1208 6.12857 40.1208 6.41635H40.2942C40.692 6.41635 40.8904 6.28845 40.8896 6.03264" fill="#FCFCFD"/>
<path d="M44.2652 6.46215C44.2773 6.78736 44.1509 7.10395 43.9131 7.34348C43.8038 7.4563 43.6695 7.54598 43.5194 7.6064C43.3693 7.66682 43.207 7.69657 43.0433 7.69362C42.8888 7.69687 42.7354 7.66993 42.5929 7.61456C42.4504 7.55919 42.322 7.47663 42.2163 7.37226C42.1053 7.26328 42.0188 7.13499 41.9617 6.99483C41.9046 6.85466 41.8781 6.7054 41.8836 6.55568C41.8713 6.23007 41.9977 5.91304 42.2357 5.67314C42.3444 5.56094 42.4779 5.47162 42.627 5.41123C42.7761 5.35083 42.9375 5.32075 43.1003 5.32301C43.2546 5.31983 43.408 5.34668 43.5505 5.40183C43.6929 5.45697 43.8213 5.53919 43.9273 5.64316C44.0394 5.75216 44.1269 5.88068 44.1849 6.02127C44.2429 6.16186 44.2702 6.31171 44.2652 6.46215ZM43.7474 6.51131C43.7578 6.29981 43.6872 6.09172 43.5481 5.92375C43.49 5.85341 43.4152 5.79645 43.3294 5.75735C43.2437 5.71824 43.1493 5.69804 43.0537 5.69832C42.9622 5.69902 42.8722 5.72008 42.7914 5.75973C42.7105 5.79938 42.6411 5.85645 42.589 5.92615C42.4572 6.09209 42.3901 6.29462 42.3988 6.50052C42.3889 6.71177 42.46 6.91944 42.5994 7.08687C42.6569 7.15734 42.7312 7.21455 42.8166 7.25407C42.9019 7.29358 42.9958 7.31433 43.0912 7.3147C43.1827 7.31411 43.2727 7.29309 43.3536 7.25343C43.4345 7.21377 43.5039 7.15664 43.5559 7.08687C43.6884 6.92072 43.7559 6.71774 43.7474 6.51131" fill="#FCFCFD"/>
<path d="M45.3212 7.63117H44.7919C44.8074 7.27144 44.8165 6.88053 44.8165 6.45126C44.8165 6.02198 44.8074 5.67064 44.7919 5.37207H45.3212C45.304 5.66385 45.2958 6.02358 45.2967 6.45126C45.2975 6.87893 45.3057 7.27224 45.3212 7.63117Z" fill="#FCFCFD"/>
<path d="M48.0328 6.42452C48.0377 6.7402 47.9165 7.04641 47.6924 7.28427C47.5736 7.40828 47.4261 7.50581 47.261 7.56956C47.0958 7.63331 46.9172 7.66162 46.7385 7.65239C46.5538 7.65239 46.2993 7.6452 45.9749 7.63081C45.9904 7.28187 45.9994 6.88857 45.9994 6.4509C45.9994 6.01323 45.9904 5.67149 45.9749 5.37172H46.3023C46.3554 5.37172 46.4317 5.37172 46.5418 5.37172L46.7488 5.36572C47.1993 5.36572 47.5259 5.47004 47.7286 5.67869C47.9297 5.88282 48.0385 6.15063 48.0328 6.42692V6.42452ZM47.5215 6.50246C47.5291 6.29779 47.4544 6.09781 47.3119 5.94129C47.2306 5.86126 47.1309 5.79922 47.0202 5.75978C46.9095 5.72034 46.7907 5.70451 46.6725 5.71346C46.5989 5.71462 46.5254 5.71983 46.4525 5.72905C46.4641 5.95927 46.4706 6.20149 46.4706 6.4485C46.4706 6.7243 46.4706 6.99889 46.49 7.26988C46.5696 7.28517 46.6507 7.29281 46.732 7.29267C46.8442 7.30088 46.9568 7.28417 47.0606 7.24391C47.1644 7.20366 47.2563 7.14103 47.3287 7.06124C47.4603 6.89915 47.5283 6.70037 47.5215 6.49767" fill="#FCFCFD"/>
<path d="M51.631 7.63121H51.0317C50.9961 7.41113 50.9394 7.19443 50.8622 6.9837H49.9976C49.9156 7.19351 49.8566 7.41044 49.8216 7.63121H49.2585C49.2585 7.58724 49.4039 7.21752 49.6947 6.52205C49.9855 5.82657 50.1313 5.44406 50.1322 5.37451H50.8389C50.8389 5.44006 50.9709 5.81698 51.2349 6.50526C51.499 7.19354 51.631 7.56886 51.631 7.63121V7.63121ZM50.7664 6.65275C50.6419 6.33553 50.5352 6.01254 50.4467 5.68508H50.4157C50.4157 5.73064 50.3056 6.052 50.0856 6.65275H50.7664Z" fill="#FCFCFD"/>
<path d="M53.8131 5.96548C53.8217 6.08568 53.7955 6.20582 53.7373 6.31353C53.679 6.42123 53.5908 6.5126 53.4818 6.57822C53.2361 6.71522 52.953 6.78352 52.6664 6.77487C52.6081 6.77487 52.5654 6.77487 52.537 6.77487C52.537 6.9931 52.5439 7.27969 52.5577 7.63462H52.0309C52.0464 7.30127 52.0555 6.90797 52.0555 6.45471C52.0555 6.03863 52.0464 5.6801 52.0309 5.37553H52.3558C52.4023 5.37553 52.4852 5.37553 52.6224 5.37553C52.7596 5.37553 52.867 5.36953 52.9628 5.36953C53.1759 5.36121 53.3869 5.41216 53.5685 5.51582C53.6487 5.5645 53.7135 5.63195 53.7565 5.71134C53.7995 5.79073 53.819 5.87924 53.8131 5.96788V5.96548ZM53.3304 6.06381C53.3304 5.81519 53.1535 5.69129 52.7997 5.69209C52.7054 5.69237 52.6113 5.70121 52.5188 5.71847C52.5318 5.9367 52.5395 6.18372 52.5395 6.46071C52.5706 6.46071 52.6068 6.46071 52.647 6.46071C53.1026 6.46071 53.3304 6.32641 53.3304 6.06021" fill="#FCFCFD"/>
<path d="M56.0574 5.96541C56.0657 6.08557 56.0394 6.20562 55.9812 6.31328C55.923 6.42094 55.8349 6.51234 55.7261 6.57814C55.4804 6.71502 55.1973 6.7833 54.9107 6.77479C54.8524 6.77479 54.8097 6.77479 54.7813 6.77479C54.7813 6.99303 54.7882 7.27961 54.802 7.63454H54.2765C54.292 7.3012 54.3011 6.90789 54.3011 6.45464C54.3011 6.03855 54.292 5.68002 54.2765 5.37545H54.6014C54.6479 5.37545 54.7308 5.37545 54.8667 5.37545C55.0026 5.37545 55.1113 5.36946 55.2084 5.36946C55.4211 5.36152 55.6315 5.41245 55.8128 5.51575C55.893 5.56442 55.9578 5.63188 56.0008 5.71127C56.0438 5.79066 56.0633 5.87916 56.0574 5.9678V5.96541ZM55.5747 6.06373C55.5747 5.81512 55.3973 5.69121 55.0427 5.69201C54.9488 5.69236 54.8552 5.70119 54.7631 5.71839C54.7761 5.93663 54.7838 6.18364 54.7838 6.46063C54.8149 6.46063 54.8512 6.46063 54.8913 6.46063C55.3469 6.46063 55.5747 6.32633 55.5747 6.06013" fill="#FCFCFD"/>
<path d="M59.7268 6.46215C59.7385 6.78728 59.6121 7.10367 59.3748 7.34348C59.2652 7.45661 59.1305 7.54647 58.9799 7.6069C58.8294 7.66733 58.6665 7.69691 58.5024 7.69361C58.3479 7.69709 58.1943 7.67026 58.0518 7.61487C57.9093 7.55949 57.781 7.47681 57.6754 7.37226C57.5642 7.26343 57.4775 7.13517 57.4204 6.99497C57.3633 6.85477 57.3369 6.70543 57.3427 6.55567C57.3304 6.2303 57.4564 5.91343 57.6935 5.67314C57.8031 5.56035 57.9376 5.47071 58.0879 5.4103C58.2382 5.34989 58.4008 5.32012 58.5646 5.32301C58.7189 5.31983 58.8723 5.34668 59.0147 5.40183C59.1572 5.45697 59.2856 5.53919 59.3916 5.64316C59.5027 5.75255 59.5893 5.88124 59.6464 6.02181C59.7035 6.16239 59.73 6.31204 59.7243 6.46215H59.7268ZM59.2065 6.51131C59.2166 6.29967 59.1455 6.09155 59.0059 5.92375C58.9482 5.85336 58.8736 5.79636 58.788 5.75724C58.7024 5.71812 58.6082 5.69795 58.5128 5.69832C58.4213 5.69892 58.3313 5.71993 58.2504 5.75959C58.1695 5.79925 58.1001 5.85638 58.0481 5.92615C57.9163 6.09209 57.8492 6.29462 57.8579 6.50052C57.8475 6.71184 57.9186 6.91968 58.0585 7.08687C58.1166 7.15798 58.1917 7.21559 58.278 7.25514C58.3642 7.29468 58.4593 7.31507 58.5555 7.3147C58.6468 7.31411 58.7367 7.29309 58.8173 7.25343C58.898 7.21376 58.9672 7.15662 59.0189 7.08687C59.1514 6.92163 59.219 6.71941 59.2104 6.51371" fill="#FCFCFD"/>
<path d="M62.2623 7.63116H61.8003C61.8003 7.584 61.6277 7.33379 61.2825 6.88053C60.9227 6.40089 60.7182 6.07474 60.669 5.90207H60.638C60.6677 6.12969 60.6837 6.35868 60.6859 6.58795C60.6859 6.87334 60.6936 7.22107 60.7117 7.63116H60.251C60.27 7.27383 60.2795 6.88053 60.2795 6.45126C60.2795 6.02198 60.27 5.66225 60.251 5.37207H60.8062C60.8062 5.43322 60.9616 5.67784 61.2696 6.10592C61.5966 6.55917 61.7847 6.86694 61.8339 7.02922H61.8676C61.8394 6.79909 61.8242 6.56774 61.8223 6.33614C61.8223 6.02318 61.8145 5.70182 61.7964 5.37687H62.2636C62.2468 5.66345 62.2377 6.02318 62.2377 6.45605C62.2377 6.88892 62.2468 7.28343 62.2636 7.63596" fill="#FCFCFD"/>
</g>
<defs>
<linearGradient id="paint0_linear_74120_76" x1="16.6738" y1="5.01018" x2="16.6738" y2="23.294" gradientUnits="userSpaceOnUse">
<stop stop-color="#2079B0"/>
<stop offset="0.32" stop-color="#4A98B5"/>
<stop offset="0.78" stop-color="#81BFBC"/>
<stop offset="1" stop-color="#97CFBF"/>
</linearGradient>
<linearGradient id="paint1_linear_74120_76" x1="11.2984" y1="10.1909" x2="23.923" y2="10.1909" gradientUnits="userSpaceOnUse">
<stop stop-color="#5ABCAB"/>
<stop offset="1" stop-color="#E6E99A"/>
</linearGradient>
<linearGradient id="paint2_linear_74120_76" x1="16.4857" y1="14.509" x2="16.4857" y2="23.7168" gradientUnits="userSpaceOnUse">
<stop stop-color="#E53432"/>
<stop offset="0.18" stop-color="#D43745"/>
<stop offset="0.73" stop-color="#A33E7C"/>
<stop offset="1" stop-color="#904192"/>
</linearGradient>
<linearGradient id="paint3_linear_74120_76" x1="26.5335" y1="11.2402" x2="26.5335" y2="16.1517" gradientUnits="userSpaceOnUse">
<stop stop-color="#F18779"/>
<stop offset="0.64" stop-color="#F9B574"/>
<stop offset="1" stop-color="#FDCB72"/>
</linearGradient>
<clipPath id="clip0_74120_76">
<rect width="102" height="27" fill="white"/>
</clipPath>
</defs>
</svg>
